<svg width="32" height="32" viewBox="0 0 32 32" fill="none" xmlns="http://www.w3.org/2000/svg">
<rect x="1" y="1" width="30.524" height="30.524" rx="15.262" fill="white" stroke="black" stroke-width="0.5" stroke-linejoin="round"/>
<path d="M10.0254 15.9966C9.8055 15.9966 9.62725 16.1748 9.62725 16.3947C9.62725 16.6146 9.8055 16.7929 10.0254 16.7929L10.0254 15.9966ZM23.0474 16.6762C23.2029 16.5208 23.2029 16.2687 23.0474 16.1132L20.5136 13.5794C20.3582 13.424 20.1061 13.424 19.9506 13.5794C19.7951 13.7349 19.7951 13.987 19.9506 14.1425L22.2028 16.3947L19.9506 18.6469C19.7951 18.8024 19.7951 19.0545 19.9506 19.21C20.1061 19.3655 20.3582 19.3655 20.5136 19.21L23.0474 16.6762ZM10.0254 16.7929L22.7659 16.7929L22.7659 15.9966L10.0254 15.9966L10.0254 16.7929Z" fill="black"/>
</svg>
