<svg width="23" height="23" viewBox="0 0 23 23" fill="none" xmlns="http://www.w3.org/2000/svg">
<path d="M1 1L3.77778 1L4.33333 3.33333M4.33333 3.33333L6.55556 12.6667M4.33333 3.33333H21L18.7778 12.6667H6.55556M6.55556 12.6667H6C5.07953 12.6667 4.33333 13.4502 4.33333 14.4167C4.33333 15.3832 5.07953 16.1667 6 16.1667H18.7778M18.7778 20.8333C18.7778 21.4777 18.2803 22 17.6667 22C17.053 22 16.5556 21.4777 16.5556 20.8333C16.5556 20.189 17.053 19.6667 17.6667 19.6667C18.2803 19.6667 18.7778 20.189 18.7778 20.8333ZM7.66667 20.8333C7.66667 21.4777 7.16921 22 6.55556 22C5.94191 22 5.44444 21.4777 5.44444 20.8333C5.44444 20.189 5.94191 19.6667 6.55556 19.6667C7.16921 19.6667 7.66667 20.189 7.66667 20.8333Z" stroke="#FDFDFD" stroke-width="2" stroke-linecap="round"/>
</svg>
