<svg width="21" height="21" viewBox="0 0 21 21" fill="none" xmlns="http://www.w3.org/2000/svg">
<g clip-path="url(#clip0_1_2024)">
<path fill-rule="evenodd" clip-rule="evenodd" d="M10.5 21C13.2848 21 15.9555 19.8938 17.9246 17.9246C19.8938 15.9555 21 13.2848 21 10.5C21 7.71523 19.8938 5.04451 17.9246 3.07538C15.9555 1.10625 13.2848 0 10.5 0C7.71523 0 5.04451 1.10625 3.07538 3.07538C1.10625 5.04451 0 7.71523 0 10.5C0 13.2848 1.10625 15.9555 3.07538 17.9246C5.04451 19.8938 7.71523 21 10.5 21ZM5.53875 5.53875C5.72332 5.35441 5.97351 5.25087 6.23438 5.25087C6.49524 5.25087 6.74543 5.35441 6.93 5.53875L10.5 9.10875L14.07 5.53875C14.1601 5.44204 14.2688 5.36446 14.3895 5.31066C14.5103 5.25686 14.6406 5.22793 14.7728 5.2256C14.905 5.22327 15.0363 5.24758 15.1588 5.29709C15.2814 5.3466 15.3928 5.42029 15.4862 5.51376C15.5797 5.60724 15.6534 5.71858 15.7029 5.84115C15.7524 5.96373 15.7767 6.09501 15.7744 6.22719C15.7721 6.35936 15.7431 6.48971 15.6893 6.61046C15.6355 6.73121 15.558 6.83988 15.4612 6.93L11.8913 10.5L15.4612 14.07C15.558 14.1601 15.6355 14.2688 15.6893 14.3895C15.7431 14.5103 15.7721 14.6406 15.7744 14.7728C15.7767 14.905 15.7524 15.0363 15.7029 15.1588C15.6534 15.2814 15.5797 15.3928 15.4862 15.4862C15.3928 15.5797 15.2814 15.6534 15.1588 15.7029C15.0363 15.7524 14.905 15.7767 14.7728 15.7744C14.6406 15.7721 14.5103 15.7431 14.3895 15.6893C14.2688 15.6355 14.1601 15.558 14.07 15.4612L10.5 11.8913L6.93 15.4612C6.7434 15.6351 6.49658 15.7298 6.24156 15.7253C5.98654 15.7208 5.74323 15.6175 5.56287 15.4371C5.38252 15.2568 5.27921 15.0135 5.27471 14.7584C5.27021 14.5034 5.36487 14.2566 5.53875 14.07L9.10875 10.5L5.53875 6.93C5.35441 6.74543 5.25087 6.49524 5.25087 6.23438C5.25087 5.97351 5.35441 5.72332 5.53875 5.53875Z" fill="black"/>
</g>
<defs>
<clipPath id="clip0_1_2024">
<rect width="21" height="21" fill="white"/>
</clipPath>
</defs>
</svg>
