<svg
    width="56"
    height="56"
    viewBox="0 0 56 56"
    fill="none"
    xmlns="http://www.w3.org/2000/svg"
>
    <circle cx="28" cy="28" r="28" fill="black"/>
    <mask id="mask0_701_2" style="mask-type:alpha" maskUnits="userSpaceOnUse" x="14" y="14" width="28" height="28">
        <rect x="14" y="14" width="28" height="28" fill="#D9D9D9"/>
    </mask>
    <g mask="url(#mask0_701_2)">
        <path d="M19.8333 36.1668H21.4667L31.5292 26.1043L29.8958 24.471L19.8333 34.5335V36.1668ZM36.5167 24.4127L31.5583 19.5127L33.1917 17.8793C33.6389 17.4321 34.1882 17.2085 34.8396 17.2085C35.491 17.2085 36.0403 17.4321 36.4875 17.8793L38.1208 19.5127C38.5681 19.9599 38.8014 20.4995 38.8208 21.1314C38.8403 21.7634 38.6264 22.3029 38.1792 22.7502L36.5167 24.4127ZM34.825 26.1335L22.4583 38.5002H17.5V33.5418L29.8667 21.1752L34.825 26.1335Z" fill="white"/>
    </g>
</svg>