<svg width="15" height="16" viewBox="0 0 15 16" fill="none" xmlns="http://www.w3.org/2000/svg">
<path d="M4.53472 2.18514C4.30571 2.18514 4.08608 2.27612 3.92414 2.43805C3.76221 2.59999 3.67123 2.81962 3.67123 3.04863C3.67123 3.27764 3.76221 3.49727 3.92414 3.65921C4.08608 3.82114 4.30571 3.91212 4.53472 3.91212C4.76373 3.91212 4.98336 3.82114 5.1453 3.65921C5.30723 3.49727 5.39821 3.27764 5.39821 3.04863C5.39821 2.81962 5.30723 2.59999 5.1453 2.43805C4.98336 2.27612 4.76373 2.18514 4.53472 2.18514ZM2.09105 2.18514C2.26945 1.67954 2.60028 1.24173 3.03795 0.932043C3.47562 0.622359 3.99857 0.456055 4.53472 0.456055C5.07087 0.456055 5.59382 0.622359 6.03149 0.932043C6.46916 1.24173 6.79999 1.67954 6.97839 2.18514H13.1696C13.3986 2.18514 13.6182 2.27612 13.7802 2.43805C13.9421 2.59999 14.0331 2.81962 14.0331 3.04863C14.0331 3.27764 13.9421 3.49727 13.7802 3.65921C13.6182 3.82114 13.3986 3.91212 13.1696 3.91212H6.97839C6.79999 4.41772 6.46916 4.85554 6.03149 5.16522C5.59382 5.4749 5.07087 5.64121 4.53472 5.64121C3.99857 5.64121 3.47562 5.4749 3.03795 5.16522C2.60028 4.85554 2.26945 4.41772 2.09105 3.91212H1.08077C0.851761 3.91212 0.63213 3.82114 0.470195 3.65921C0.30826 3.49727 0.217285 3.27764 0.217285 3.04863C0.217285 2.81962 0.30826 2.59999 0.470195 2.43805C0.63213 2.27612 0.851761 2.18514 1.08077 2.18514H2.09105ZM9.71564 7.36607C9.48663 7.36607 9.267 7.45704 9.10506 7.61897C8.94313 7.78091 8.85215 8.00054 8.85215 8.22955C8.85215 8.45856 8.94313 8.67819 9.10506 8.84013C9.267 9.00206 9.48663 9.09304 9.71564 9.09304C9.94465 9.09304 10.1643 9.00206 10.3262 8.84013C10.4882 8.67819 10.5791 8.45856 10.5791 8.22955C10.5791 8.00054 10.4882 7.78091 10.3262 7.61897C10.1643 7.45704 9.94465 7.36607 9.71564 7.36607ZM7.27197 7.36607C7.45037 6.86047 7.78121 6.42265 8.21887 6.11296C8.65654 5.80328 9.17949 5.63698 9.71564 5.63698C10.2518 5.63698 10.7747 5.80328 11.2124 6.11296C11.6501 6.42265 11.9809 6.86047 12.1593 7.36607H13.1696C13.3986 7.36607 13.6182 7.45704 13.7802 7.61897C13.9421 7.78091 14.0331 8.00054 14.0331 8.22955C14.0331 8.45856 13.9421 8.67819 13.7802 8.84013C13.6182 9.00206 13.3986 9.09304 13.1696 9.09304H12.1593C11.9809 9.59864 11.6501 10.0365 11.2124 10.3461C10.7747 10.6558 10.2518 10.8221 9.71564 10.8221C9.17949 10.8221 8.65654 10.6558 8.21887 10.3461C7.78121 10.0365 7.45037 9.59864 7.27197 9.09304H1.08077C0.851761 9.09304 0.63213 9.00206 0.470195 8.84013C0.30826 8.67819 0.217285 8.45856 0.217285 8.22955C0.217285 8.00054 0.30826 7.78091 0.470195 7.61897C0.63213 7.45704 0.851761 7.36607 1.08077 7.36607H7.27197ZM4.53472 12.547C4.30571 12.547 4.08608 12.638 3.92414 12.7999C3.76221 12.9618 3.67123 13.1815 3.67123 13.4105C3.67123 13.6395 3.76221 13.8591 3.92414 14.0211C4.08608 14.183 4.30571 14.274 4.53472 14.274C4.76373 14.274 4.98336 14.183 5.1453 14.0211C5.30723 13.8591 5.39821 13.6395 5.39821 13.4105C5.39821 13.1815 5.30723 12.9618 5.1453 12.7999C4.98336 12.638 4.76373 12.547 4.53472 12.547ZM2.09105 12.547C2.26945 12.0414 2.60028 11.6036 3.03795 11.2939C3.47562 10.9842 3.99857 10.8179 4.53472 10.8179C5.07087 10.8179 5.59382 10.9842 6.03149 11.2939C6.46916 11.6036 6.79999 12.0414 6.97839 12.547H13.1696C13.3986 12.547 13.6182 12.638 13.7802 12.7999C13.9421 12.9618 14.0331 13.1815 14.0331 13.4105C14.0331 13.6395 13.9421 13.8591 13.7802 14.0211C13.6182 14.183 13.3986 14.274 13.1696 14.274H6.97839C6.79999 14.7796 6.46916 15.2174 6.03149 15.5271C5.59382 15.8367 5.07087 16.003 4.53472 16.003C3.99857 16.003 3.47562 15.8367 3.03795 15.5271C2.60028 15.2174 2.26945 14.7796 2.09105 14.274H1.08077C0.851761 14.274 0.63213 14.183 0.470195 14.0211C0.30826 13.8591 0.217285 13.6395 0.217285 13.4105C0.217285 13.1815 0.30826 12.9618 0.470195 12.7999C0.63213 12.638 0.851761 12.547 1.08077 12.547H2.09105Z" fill="black"/>
</svg>
