<svg width="20" height="20" viewBox="0 0 20 20" fill="none" xmlns="http://www.w3.org/2000/svg">
<rect width="20" height="20" fill="white"/>
<path d="M15.4006 5.20349C14.3792 3.57682 13.0639 2.18194 11.9121 1.03211C11.8413 0.961444 11.7546 0.908789 11.6593 0.878572C11.564 0.848355 11.4628 0.841461 11.3642 0.858467C11.2657 0.875473 11.1726 0.915883 11.093 0.976302C11.0133 1.03672 10.9492 1.11539 10.9063 1.20568L8.49606 6.2671L5.9745 4.58604C5.90611 4.54044 5.8294 4.50878 5.74875 4.49287C5.66811 4.47697 5.58512 4.47713 5.50454 4.49334C5.42395 4.50956 5.34736 4.54151 5.27915 4.58737C5.21093 4.63323 5.15243 4.6921 5.107 4.7606C3.58448 7.05575 2.8125 9.134 2.8125 10.9375C2.8125 12.8438 3.56975 14.6719 4.91767 16.0198C6.26559 17.3678 8.09376 18.125 10 18.125C11.9062 18.125 13.7344 17.3678 15.0823 16.0198C16.4302 14.6719 17.1875 12.8438 17.1875 10.9375C17.1875 8.99392 16.603 7.11831 15.4006 5.20349ZM14.6324 11.6579C14.4832 12.6421 14.023 13.5527 13.3191 14.2566C12.6152 14.9605 11.7046 15.4207 10.7204 15.5699C10.6886 15.5748 10.6565 15.5773 10.6243 15.5773C10.4669 15.5771 10.3153 15.5175 10.1999 15.4105C10.0845 15.3034 10.0138 15.1567 10.0019 14.9997C9.9899 14.8428 10.0376 14.6871 10.1355 14.5638C10.2333 14.4405 10.3741 14.3586 10.5296 14.3346C11.2484 14.2188 11.9123 13.8793 12.427 13.3646C12.9418 12.8498 13.2812 12.1859 13.397 11.4671C13.4095 11.386 13.4379 11.3082 13.4805 11.238C13.5231 11.1679 13.5792 11.1068 13.6454 11.0583C13.7116 11.0098 13.7867 10.9748 13.8664 10.9554C13.9462 10.9359 14.029 10.9323 14.1101 10.9448C14.1912 10.9574 14.269 10.9857 14.3392 11.0283C14.4093 11.071 14.4704 11.127 14.5189 11.1932C14.5674 11.2594 14.6024 11.3345 14.6219 11.4142C14.6413 11.494 14.6449 11.5768 14.6324 11.6579H14.6324Z" fill="#C8202F"/>
</svg>
