<svg width="165" height="90" viewBox="0 0 165 90" fill="none" xmlns="http://www.w3.org/2000/svg">
<g clip-path="url(#clip0_37_1043)">
<path d="M18.0875 27.1125L14.1375 31.1125C13.9311 31.3219 13.6852 31.4884 13.4139 31.6024C13.1426 31.7164 12.8511 31.7757 12.5563 31.7769C12.2614 31.778 11.9689 31.721 11.6954 31.6092C11.4219 31.4973 11.1729 31.3328 10.9625 31.125L1.77501 21.925C1.51619 21.6663 1.3111 21.3589 1.17155 21.0205C1.03201 20.6822 0.960766 20.3196 0.961928 19.9536C0.96309 19.5877 1.03663 19.2255 1.17832 18.8881C1.32001 18.5507 1.52705 18.2446 1.78751 17.9875L18.4 1.575C18.8169 1.16665 19.3733 0.93781 19.95 0.9375H36.0875C36.6125 0.9375 36.875 1.2 36.875 1.725V88.4375C36.875 88.6861 36.7762 88.9246 36.6004 89.1004C36.4246 89.2762 36.1862 89.375 35.9375 89.375H20.45C20.2635 89.375 20.0788 89.3381 19.9066 89.2663C19.7344 89.1945 19.5781 89.0894 19.4468 88.9569C19.3155 88.8244 19.2117 88.6672 19.1414 88.4944C19.0712 88.3216 19.0359 88.1365 19.0375 87.95L19.075 27.525C19.0774 27.4095 19.045 27.296 18.982 27.1992C18.919 27.1025 18.8283 27.0269 18.7218 26.9824C18.6152 26.9379 18.4977 26.9265 18.3846 26.9497C18.2715 26.9729 18.1679 27.0296 18.0875 27.1125Z" fill="white"/>
<path d="M59.6749 20.0252L59.7124 70.4877C59.7124 71.6294 60.2832 72.1919 61.4249 72.1752L85.9624 71.8752C86.2058 71.8729 86.4471 71.921 86.671 72.0165C86.8949 72.112 87.0965 72.2529 87.2633 72.4302C87.4301 72.6075 87.5583 72.8175 87.6399 73.0468C87.7215 73.2761 87.7547 73.5199 87.7374 73.7627C87.3791 79.1794 88.7791 84.046 91.9374 88.3627C92.4791 89.1044 92.2874 89.4919 91.3624 89.5252C79.9124 89.8919 68.6041 89.8419 57.4374 89.3752C47.3249 88.9502 42.3874 85.1002 42.2249 74.9752C41.9082 55.8002 41.7832 36.6377 41.8499 17.4877C41.8999 3.5377 50.8624 1.3502 63.1874 1.2752C74.2791 1.20853 85.3749 1.26687 96.4749 1.4502C105 1.6002 112.3 5.8127 112.362 15.0752C112.487 33.5919 112.533 52.1085 112.5 70.6252C112.5 70.9534 112.63 71.2682 112.862 71.5002C113.094 71.7323 113.409 71.8627 113.737 71.8627L146.587 71.9127C146.987 71.9127 147.187 71.7085 147.187 71.3002V20.2877C147.187 20.1192 147.154 19.9524 147.09 19.7969C147.026 19.6414 146.932 19.5003 146.813 19.3817C146.695 19.2631 146.554 19.1695 146.399 19.1061C146.245 19.0428 146.079 19.011 145.912 19.0127L121.15 19.1752C120.914 19.177 120.68 19.131 120.462 19.04C120.244 18.9489 120.046 18.8146 119.882 18.6453C119.717 18.4759 119.588 18.275 119.503 18.0545C119.418 17.8341 119.379 17.5988 119.387 17.3627C119.562 11.846 118.158 6.79603 115.175 2.2127C115.106 2.10771 115.067 1.98588 115.061 1.86044C115.056 1.73501 115.084 1.61077 115.144 1.50123C115.203 1.39169 115.291 1.30105 115.398 1.23916C115.504 1.17728 115.626 1.14651 115.75 1.1502C125.925 1.29187 136.196 1.3127 146.562 1.2127C155.662 1.1377 164.4 3.9002 164.475 14.7502C164.6 33.5752 164.679 52.3877 164.712 71.1877C164.721 76.7877 164.15 80.7002 163 82.9252C160.883 87.0085 157.087 89.2127 151.612 89.5377C142.112 90.096 128.062 90.0419 109.462 89.3752C98.9624 89.0127 94.6999 83.7252 94.6874 73.6002C94.6791 56.0502 94.6791 38.296 94.6874 20.3377C94.6874 20.2097 94.6622 20.0829 94.6132 19.9646C94.5642 19.8463 94.4924 19.7388 94.4018 19.6483C94.3113 19.5577 94.2038 19.4859 94.0855 19.4369C93.9672 19.3879 93.8405 19.3627 93.7124 19.3627L60.2874 19.4127C59.8791 19.4127 59.6749 19.6169 59.6749 20.0252Z" fill="white"/>
</g>
<defs>
<clipPath id="clip0_37_1043">
<rect width="165" height="90" fill="white"/>
</clipPath>
</defs>
</svg>
