<svg width="70" height="70" viewBox="0 0 70 70" fill="none" xmlns="http://www.w3.org/2000/svg">
<path d="M29.0873 4.81525L17.4993 29.1665V67.0832H53.8993C55.8185 67.084 57.6743 66.3967 59.1299 65.146C60.5855 63.8954 61.5445 62.1643 61.8327 60.2669L66.0414 32.5586C66.215 31.4162 66.1396 30.2499 65.8206 29.1394C65.5016 28.0289 64.9464 27.0004 64.193 26.1243C63.4396 25.2482 62.5059 24.5453 61.4557 24.0635C60.4055 23.5818 59.2635 23.3327 58.1081 23.3332H43.0202C42.6177 23.3332 42.291 23.0065 42.291 22.604V13.1978C42.291 11.8476 42.0251 10.5107 41.5084 9.26329C40.9917 8.01591 40.2344 6.88251 39.2797 5.92781C38.325 4.97311 37.1916 4.2158 35.9442 3.69912C34.6969 3.18244 33.3599 2.9165 32.0098 2.9165C31.3912 2.91664 30.786 3.09606 30.2673 3.43305C29.7486 3.77004 29.3387 4.25014 29.0873 4.81525Z" fill="black"/>
<path d="M13.1243 67.0832V29.1665H10.9368C8.80959 29.1665 6.76946 30.0116 5.26526 31.5157C3.76107 33.0199 2.91602 35.0601 2.91602 37.1873V59.0623C2.91602 61.1896 3.76107 63.2297 5.26526 64.7339C6.76946 66.2381 8.80959 67.0832 10.9368 67.0832H13.1243Z" fill="black"/>
</svg>
